G04 MADE WITH FRITZING*
G04 WWW.FRITZING.ORG*
G04 DOUBLE SIDED*
G04 HOLES PLATED*
G04 CONTOUR ON CENTER OF CONTOUR VECTOR*
%ASAXBY*%
%FSLAX23Y23*%
%MOIN*%
%OFA0B0*%
%SFA1.0B1.0*%
%ADD10C,0.075000*%
%ADD11C,0.070000*%
%ADD12C,0.062992*%
%ADD13C,0.052000*%
%ADD14R,0.075000X0.075000*%
%ADD15R,0.062992X0.062992*%
%ADD16C,0.024000*%
%ADD17R,0.001000X0.001000*%
%LNCOPPER0*%
G90*
G70*
G54D10*
X1111Y1478D03*
X1111Y1078D03*
X911Y1478D03*
X911Y1078D03*
X1011Y1778D03*
X911Y1778D03*
G54D11*
X911Y278D03*
X1011Y278D03*
G54D10*
X1211Y878D03*
X1511Y878D03*
X1211Y778D03*
X1511Y778D03*
X1211Y678D03*
X1511Y678D03*
X1211Y578D03*
X1511Y578D03*
G54D12*
X2811Y1178D03*
X2811Y1276D03*
X2811Y578D03*
X2811Y676D03*
X2811Y878D03*
X2811Y976D03*
X2811Y278D03*
X2811Y376D03*
G54D10*
X1634Y1522D03*
X1634Y1778D03*
X1811Y1522D03*
X1811Y1778D03*
X2011Y878D03*
X2411Y878D03*
X2011Y578D03*
X2411Y578D03*
X2011Y1178D03*
X2411Y1178D03*
X2011Y278D03*
X2411Y278D03*
G54D13*
X311Y978D03*
X311Y878D03*
X311Y778D03*
X311Y678D03*
X311Y578D03*
X311Y478D03*
X311Y378D03*
X611Y378D03*
X611Y478D03*
X611Y578D03*
X611Y678D03*
X611Y778D03*
X611Y878D03*
X611Y978D03*
G54D14*
X1011Y1778D03*
X1211Y878D03*
G54D15*
X2811Y1178D03*
X2811Y578D03*
X2811Y878D03*
X2811Y278D03*
G54D16*
X1203Y862D02*
X918Y291D01*
D02*
X1511Y79D02*
X112Y79D01*
D02*
X112Y79D02*
X209Y575D01*
D02*
X209Y575D02*
X300Y666D01*
D02*
X1999Y565D02*
X1511Y79D01*
D02*
X1499Y865D02*
X1223Y590D01*
D02*
X1813Y1175D02*
X312Y1175D01*
D02*
X312Y1175D02*
X112Y1078D01*
D02*
X2001Y892D02*
X1813Y1175D01*
D02*
X112Y1078D02*
X300Y889D01*
D02*
X1617Y1520D02*
X1129Y1479D01*
D02*
X1495Y886D02*
X1127Y1070D01*
D02*
X1496Y569D02*
X1024Y285D01*
G54D17*
X283Y1004D02*
X340Y1004D01*
X583Y1004D02*
X640Y1004D01*
X278Y1003D02*
X345Y1003D01*
X578Y1003D02*
X645Y1003D01*
X276Y1002D02*
X347Y1002D01*
X576Y1002D02*
X647Y1002D01*
X274Y1001D02*
X349Y1001D01*
X574Y1001D02*
X649Y1001D01*
X272Y1000D02*
X351Y1000D01*
X572Y1000D02*
X651Y1000D01*
X271Y999D02*
X353Y999D01*
X571Y999D02*
X652Y999D01*
X269Y998D02*
X354Y998D01*
X569Y998D02*
X654Y998D01*
X268Y997D02*
X355Y997D01*
X568Y997D02*
X655Y997D01*
X267Y996D02*
X356Y996D01*
X567Y996D02*
X656Y996D01*
X266Y995D02*
X357Y995D01*
X566Y995D02*
X657Y995D01*
X266Y994D02*
X309Y994D01*
X314Y994D02*
X358Y994D01*
X566Y994D02*
X609Y994D01*
X614Y994D02*
X658Y994D01*
X265Y993D02*
X305Y993D01*
X318Y993D02*
X358Y993D01*
X565Y993D02*
X605Y993D01*
X618Y993D02*
X658Y993D01*
X264Y992D02*
X303Y992D01*
X320Y992D02*
X359Y992D01*
X564Y992D02*
X603Y992D01*
X620Y992D02*
X659Y992D01*
X264Y991D02*
X302Y991D01*
X322Y991D02*
X360Y991D01*
X564Y991D02*
X602Y991D01*
X622Y991D02*
X660Y991D01*
X263Y990D02*
X300Y990D01*
X323Y990D02*
X360Y990D01*
X563Y990D02*
X600Y990D01*
X623Y990D02*
X660Y990D01*
X263Y989D02*
X299Y989D01*
X324Y989D02*
X361Y989D01*
X562Y989D02*
X599Y989D01*
X624Y989D02*
X661Y989D01*
X262Y988D02*
X299Y988D01*
X325Y988D02*
X361Y988D01*
X562Y988D02*
X599Y988D01*
X625Y988D02*
X661Y988D01*
X262Y987D02*
X298Y987D01*
X325Y987D02*
X362Y987D01*
X562Y987D02*
X598Y987D01*
X625Y987D02*
X661Y987D01*
X261Y986D02*
X297Y986D01*
X326Y986D02*
X362Y986D01*
X561Y986D02*
X597Y986D01*
X626Y986D02*
X662Y986D01*
X261Y985D02*
X297Y985D01*
X326Y985D02*
X362Y985D01*
X561Y985D02*
X597Y985D01*
X626Y985D02*
X662Y985D01*
X261Y984D02*
X296Y984D01*
X327Y984D02*
X362Y984D01*
X561Y984D02*
X596Y984D01*
X627Y984D02*
X662Y984D01*
X261Y983D02*
X296Y983D01*
X327Y983D02*
X363Y983D01*
X561Y983D02*
X596Y983D01*
X627Y983D02*
X663Y983D01*
X260Y982D02*
X296Y982D01*
X328Y982D02*
X363Y982D01*
X560Y982D02*
X596Y982D01*
X628Y982D02*
X663Y982D01*
X260Y981D02*
X295Y981D01*
X328Y981D02*
X363Y981D01*
X560Y981D02*
X595Y981D01*
X628Y981D02*
X663Y981D01*
X260Y980D02*
X295Y980D01*
X328Y980D02*
X363Y980D01*
X560Y980D02*
X595Y980D01*
X628Y980D02*
X663Y980D01*
X260Y979D02*
X295Y979D01*
X328Y979D02*
X363Y979D01*
X560Y979D02*
X595Y979D01*
X628Y979D02*
X663Y979D01*
X260Y978D02*
X295Y978D01*
X328Y978D02*
X363Y978D01*
X560Y978D02*
X595Y978D01*
X628Y978D02*
X663Y978D01*
X260Y977D02*
X295Y977D01*
X328Y977D02*
X363Y977D01*
X560Y977D02*
X595Y977D01*
X628Y977D02*
X663Y977D01*
X260Y976D02*
X295Y976D01*
X328Y976D02*
X363Y976D01*
X560Y976D02*
X595Y976D01*
X628Y976D02*
X663Y976D01*
X260Y975D02*
X295Y975D01*
X328Y975D02*
X363Y975D01*
X560Y975D02*
X595Y975D01*
X628Y975D02*
X663Y975D01*
X260Y974D02*
X296Y974D01*
X327Y974D02*
X363Y974D01*
X560Y974D02*
X596Y974D01*
X627Y974D02*
X663Y974D01*
X261Y973D02*
X296Y973D01*
X327Y973D02*
X363Y973D01*
X561Y973D02*
X596Y973D01*
X627Y973D02*
X663Y973D01*
X261Y972D02*
X296Y972D01*
X327Y972D02*
X362Y972D01*
X561Y972D02*
X596Y972D01*
X627Y972D02*
X662Y972D01*
X261Y971D02*
X297Y971D01*
X326Y971D02*
X362Y971D01*
X561Y971D02*
X597Y971D01*
X626Y971D02*
X662Y971D01*
X261Y970D02*
X297Y970D01*
X326Y970D02*
X362Y970D01*
X561Y970D02*
X597Y970D01*
X626Y970D02*
X662Y970D01*
X262Y969D02*
X298Y969D01*
X325Y969D02*
X361Y969D01*
X562Y969D02*
X598Y969D01*
X625Y969D02*
X661Y969D01*
X262Y968D02*
X299Y968D01*
X324Y968D02*
X361Y968D01*
X562Y968D02*
X599Y968D01*
X624Y968D02*
X661Y968D01*
X263Y967D02*
X300Y967D01*
X323Y967D02*
X360Y967D01*
X563Y967D02*
X600Y967D01*
X623Y967D02*
X660Y967D01*
X263Y966D02*
X301Y966D01*
X322Y966D02*
X360Y966D01*
X563Y966D02*
X601Y966D01*
X622Y966D02*
X660Y966D01*
X264Y965D02*
X302Y965D01*
X321Y965D02*
X359Y965D01*
X564Y965D02*
X602Y965D01*
X621Y965D02*
X659Y965D01*
X264Y964D02*
X304Y964D01*
X319Y964D02*
X359Y964D01*
X564Y964D02*
X604Y964D01*
X619Y964D02*
X659Y964D01*
X265Y963D02*
X306Y963D01*
X317Y963D02*
X358Y963D01*
X565Y963D02*
X606Y963D01*
X617Y963D02*
X658Y963D01*
X266Y962D02*
X357Y962D01*
X566Y962D02*
X657Y962D01*
X267Y961D02*
X356Y961D01*
X567Y961D02*
X656Y961D01*
X268Y960D02*
X356Y960D01*
X568Y960D02*
X656Y960D01*
X269Y959D02*
X354Y959D01*
X569Y959D02*
X654Y959D01*
X270Y958D02*
X353Y958D01*
X570Y958D02*
X653Y958D01*
X271Y957D02*
X352Y957D01*
X571Y957D02*
X652Y957D01*
X273Y956D02*
X350Y956D01*
X573Y956D02*
X650Y956D01*
X275Y955D02*
X349Y955D01*
X575Y955D02*
X649Y955D01*
X277Y954D02*
X347Y954D01*
X577Y954D02*
X647Y954D01*
X280Y953D02*
X343Y953D01*
X580Y953D02*
X643Y953D01*
X283Y904D02*
X340Y904D01*
X583Y904D02*
X640Y904D01*
X278Y903D02*
X345Y903D01*
X578Y903D02*
X645Y903D01*
X276Y902D02*
X347Y902D01*
X576Y902D02*
X647Y902D01*
X274Y901D02*
X349Y901D01*
X574Y901D02*
X649Y901D01*
X272Y900D02*
X351Y900D01*
X572Y900D02*
X651Y900D01*
X271Y899D02*
X353Y899D01*
X571Y899D02*
X652Y899D01*
X269Y898D02*
X354Y898D01*
X569Y898D02*
X654Y898D01*
X268Y897D02*
X355Y897D01*
X568Y897D02*
X655Y897D01*
X267Y896D02*
X356Y896D01*
X567Y896D02*
X656Y896D01*
X266Y895D02*
X357Y895D01*
X566Y895D02*
X657Y895D01*
X266Y894D02*
X309Y894D01*
X314Y894D02*
X358Y894D01*
X566Y894D02*
X609Y894D01*
X614Y894D02*
X658Y894D01*
X265Y893D02*
X305Y893D01*
X318Y893D02*
X358Y893D01*
X565Y893D02*
X605Y893D01*
X618Y893D02*
X658Y893D01*
X264Y892D02*
X303Y892D01*
X320Y892D02*
X359Y892D01*
X564Y892D02*
X603Y892D01*
X620Y892D02*
X659Y892D01*
X264Y891D02*
X302Y891D01*
X322Y891D02*
X360Y891D01*
X564Y891D02*
X602Y891D01*
X622Y891D02*
X660Y891D01*
X263Y890D02*
X300Y890D01*
X323Y890D02*
X360Y890D01*
X563Y890D02*
X600Y890D01*
X623Y890D02*
X660Y890D01*
X262Y889D02*
X299Y889D01*
X324Y889D02*
X361Y889D01*
X562Y889D02*
X599Y889D01*
X624Y889D02*
X661Y889D01*
X262Y888D02*
X299Y888D01*
X325Y888D02*
X361Y888D01*
X562Y888D02*
X598Y888D01*
X625Y888D02*
X661Y888D01*
X262Y887D02*
X298Y887D01*
X325Y887D02*
X362Y887D01*
X562Y887D02*
X598Y887D01*
X625Y887D02*
X661Y887D01*
X261Y886D02*
X297Y886D01*
X326Y886D02*
X362Y886D01*
X561Y886D02*
X597Y886D01*
X626Y886D02*
X662Y886D01*
X261Y885D02*
X297Y885D01*
X327Y885D02*
X362Y885D01*
X561Y885D02*
X597Y885D01*
X626Y885D02*
X662Y885D01*
X261Y884D02*
X296Y884D01*
X327Y884D02*
X362Y884D01*
X561Y884D02*
X596Y884D01*
X627Y884D02*
X662Y884D01*
X261Y883D02*
X296Y883D01*
X327Y883D02*
X363Y883D01*
X561Y883D02*
X596Y883D01*
X627Y883D02*
X663Y883D01*
X260Y882D02*
X296Y882D01*
X328Y882D02*
X363Y882D01*
X560Y882D02*
X596Y882D01*
X628Y882D02*
X663Y882D01*
X260Y881D02*
X295Y881D01*
X328Y881D02*
X363Y881D01*
X560Y881D02*
X595Y881D01*
X628Y881D02*
X663Y881D01*
X260Y880D02*
X295Y880D01*
X328Y880D02*
X363Y880D01*
X560Y880D02*
X595Y880D01*
X628Y880D02*
X663Y880D01*
X260Y879D02*
X295Y879D01*
X328Y879D02*
X363Y879D01*
X560Y879D02*
X595Y879D01*
X628Y879D02*
X663Y879D01*
X260Y878D02*
X295Y878D01*
X328Y878D02*
X363Y878D01*
X560Y878D02*
X595Y878D01*
X628Y878D02*
X663Y878D01*
X260Y877D02*
X295Y877D01*
X328Y877D02*
X363Y877D01*
X560Y877D02*
X595Y877D01*
X628Y877D02*
X663Y877D01*
X260Y876D02*
X295Y876D01*
X328Y876D02*
X363Y876D01*
X560Y876D02*
X595Y876D01*
X628Y876D02*
X663Y876D01*
X260Y875D02*
X295Y875D01*
X328Y875D02*
X363Y875D01*
X560Y875D02*
X595Y875D01*
X628Y875D02*
X663Y875D01*
X260Y874D02*
X296Y874D01*
X327Y874D02*
X363Y874D01*
X560Y874D02*
X596Y874D01*
X627Y874D02*
X663Y874D01*
X261Y873D02*
X296Y873D01*
X327Y873D02*
X363Y873D01*
X561Y873D02*
X596Y873D01*
X627Y873D02*
X663Y873D01*
X261Y872D02*
X296Y872D01*
X327Y872D02*
X362Y872D01*
X561Y872D02*
X596Y872D01*
X627Y872D02*
X662Y872D01*
X261Y871D02*
X297Y871D01*
X326Y871D02*
X362Y871D01*
X561Y871D02*
X597Y871D01*
X626Y871D02*
X662Y871D01*
X261Y870D02*
X297Y870D01*
X326Y870D02*
X362Y870D01*
X561Y870D02*
X597Y870D01*
X626Y870D02*
X662Y870D01*
X262Y869D02*
X298Y869D01*
X325Y869D02*
X361Y869D01*
X562Y869D02*
X598Y869D01*
X625Y869D02*
X661Y869D01*
X262Y868D02*
X299Y868D01*
X324Y868D02*
X361Y868D01*
X562Y868D02*
X599Y868D01*
X624Y868D02*
X661Y868D01*
X263Y867D02*
X300Y867D01*
X323Y867D02*
X360Y867D01*
X563Y867D02*
X600Y867D01*
X623Y867D02*
X660Y867D01*
X263Y866D02*
X301Y866D01*
X322Y866D02*
X360Y866D01*
X563Y866D02*
X601Y866D01*
X622Y866D02*
X660Y866D01*
X264Y865D02*
X302Y865D01*
X321Y865D02*
X359Y865D01*
X564Y865D02*
X602Y865D01*
X621Y865D02*
X659Y865D01*
X264Y864D02*
X304Y864D01*
X319Y864D02*
X359Y864D01*
X564Y864D02*
X604Y864D01*
X619Y864D02*
X659Y864D01*
X265Y863D02*
X306Y863D01*
X317Y863D02*
X358Y863D01*
X565Y863D02*
X606Y863D01*
X617Y863D02*
X658Y863D01*
X266Y862D02*
X357Y862D01*
X566Y862D02*
X657Y862D01*
X267Y861D02*
X356Y861D01*
X567Y861D02*
X656Y861D01*
X268Y860D02*
X356Y860D01*
X568Y860D02*
X656Y860D01*
X269Y859D02*
X354Y859D01*
X569Y859D02*
X654Y859D01*
X270Y858D02*
X353Y858D01*
X570Y858D02*
X653Y858D01*
X271Y857D02*
X352Y857D01*
X571Y857D02*
X652Y857D01*
X273Y856D02*
X350Y856D01*
X573Y856D02*
X650Y856D01*
X275Y855D02*
X349Y855D01*
X575Y855D02*
X649Y855D01*
X277Y854D02*
X347Y854D01*
X577Y854D02*
X647Y854D01*
X280Y853D02*
X343Y853D01*
X580Y853D02*
X643Y853D01*
X283Y804D02*
X340Y804D01*
X583Y804D02*
X640Y804D01*
X278Y803D02*
X345Y803D01*
X578Y803D02*
X645Y803D01*
X276Y802D02*
X347Y802D01*
X576Y802D02*
X647Y802D01*
X274Y801D02*
X349Y801D01*
X574Y801D02*
X649Y801D01*
X272Y800D02*
X351Y800D01*
X572Y800D02*
X651Y800D01*
X271Y799D02*
X353Y799D01*
X571Y799D02*
X653Y799D01*
X269Y798D02*
X354Y798D01*
X569Y798D02*
X654Y798D01*
X268Y797D02*
X355Y797D01*
X568Y797D02*
X655Y797D01*
X267Y796D02*
X356Y796D01*
X567Y796D02*
X656Y796D01*
X266Y795D02*
X357Y795D01*
X566Y795D02*
X657Y795D01*
X266Y794D02*
X309Y794D01*
X314Y794D02*
X358Y794D01*
X566Y794D02*
X609Y794D01*
X614Y794D02*
X658Y794D01*
X265Y793D02*
X305Y793D01*
X318Y793D02*
X358Y793D01*
X565Y793D02*
X605Y793D01*
X618Y793D02*
X658Y793D01*
X264Y792D02*
X303Y792D01*
X320Y792D02*
X359Y792D01*
X564Y792D02*
X603Y792D01*
X620Y792D02*
X659Y792D01*
X264Y791D02*
X302Y791D01*
X322Y791D02*
X360Y791D01*
X564Y791D02*
X602Y791D01*
X622Y791D02*
X660Y791D01*
X263Y790D02*
X300Y790D01*
X323Y790D02*
X360Y790D01*
X563Y790D02*
X600Y790D01*
X623Y790D02*
X660Y790D01*
X262Y789D02*
X299Y789D01*
X324Y789D02*
X361Y789D01*
X562Y789D02*
X599Y789D01*
X624Y789D02*
X661Y789D01*
X262Y788D02*
X299Y788D01*
X325Y788D02*
X361Y788D01*
X562Y788D02*
X598Y788D01*
X625Y788D02*
X661Y788D01*
X262Y787D02*
X298Y787D01*
X325Y787D02*
X362Y787D01*
X562Y787D02*
X598Y787D01*
X625Y787D02*
X661Y787D01*
X261Y786D02*
X297Y786D01*
X326Y786D02*
X362Y786D01*
X561Y786D02*
X597Y786D01*
X626Y786D02*
X662Y786D01*
X261Y785D02*
X297Y785D01*
X327Y785D02*
X362Y785D01*
X561Y785D02*
X597Y785D01*
X626Y785D02*
X662Y785D01*
X261Y784D02*
X296Y784D01*
X327Y784D02*
X362Y784D01*
X561Y784D02*
X596Y784D01*
X627Y784D02*
X662Y784D01*
X261Y783D02*
X296Y783D01*
X327Y783D02*
X363Y783D01*
X561Y783D02*
X596Y783D01*
X627Y783D02*
X663Y783D01*
X260Y782D02*
X296Y782D01*
X328Y782D02*
X363Y782D01*
X560Y782D02*
X596Y782D01*
X628Y782D02*
X663Y782D01*
X260Y781D02*
X295Y781D01*
X328Y781D02*
X363Y781D01*
X560Y781D02*
X595Y781D01*
X628Y781D02*
X663Y781D01*
X260Y780D02*
X295Y780D01*
X328Y780D02*
X363Y780D01*
X560Y780D02*
X595Y780D01*
X628Y780D02*
X663Y780D01*
X260Y779D02*
X295Y779D01*
X328Y779D02*
X363Y779D01*
X560Y779D02*
X595Y779D01*
X628Y779D02*
X663Y779D01*
X260Y778D02*
X295Y778D01*
X328Y778D02*
X363Y778D01*
X560Y778D02*
X595Y778D01*
X628Y778D02*
X663Y778D01*
X260Y777D02*
X295Y777D01*
X328Y777D02*
X363Y777D01*
X560Y777D02*
X595Y777D01*
X628Y777D02*
X663Y777D01*
X260Y776D02*
X295Y776D01*
X328Y776D02*
X363Y776D01*
X560Y776D02*
X595Y776D01*
X628Y776D02*
X663Y776D01*
X260Y775D02*
X295Y775D01*
X328Y775D02*
X363Y775D01*
X560Y775D02*
X595Y775D01*
X628Y775D02*
X663Y775D01*
X260Y774D02*
X296Y774D01*
X327Y774D02*
X363Y774D01*
X560Y774D02*
X596Y774D01*
X627Y774D02*
X663Y774D01*
X261Y773D02*
X296Y773D01*
X327Y773D02*
X363Y773D01*
X561Y773D02*
X596Y773D01*
X627Y773D02*
X663Y773D01*
X261Y772D02*
X296Y772D01*
X327Y772D02*
X362Y772D01*
X561Y772D02*
X596Y772D01*
X627Y772D02*
X662Y772D01*
X261Y771D02*
X297Y771D01*
X326Y771D02*
X362Y771D01*
X561Y771D02*
X597Y771D01*
X626Y771D02*
X662Y771D01*
X261Y770D02*
X297Y770D01*
X326Y770D02*
X362Y770D01*
X561Y770D02*
X597Y770D01*
X626Y770D02*
X662Y770D01*
X262Y769D02*
X298Y769D01*
X325Y769D02*
X361Y769D01*
X562Y769D02*
X598Y769D01*
X625Y769D02*
X661Y769D01*
X262Y768D02*
X299Y768D01*
X324Y768D02*
X361Y768D01*
X562Y768D02*
X599Y768D01*
X624Y768D02*
X661Y768D01*
X263Y767D02*
X300Y767D01*
X323Y767D02*
X360Y767D01*
X563Y767D02*
X600Y767D01*
X623Y767D02*
X660Y767D01*
X263Y766D02*
X301Y766D01*
X322Y766D02*
X360Y766D01*
X563Y766D02*
X601Y766D01*
X622Y766D02*
X660Y766D01*
X264Y765D02*
X302Y765D01*
X321Y765D02*
X359Y765D01*
X564Y765D02*
X602Y765D01*
X621Y765D02*
X659Y765D01*
X264Y764D02*
X304Y764D01*
X319Y764D02*
X359Y764D01*
X564Y764D02*
X604Y764D01*
X619Y764D02*
X659Y764D01*
X265Y763D02*
X306Y763D01*
X317Y763D02*
X358Y763D01*
X565Y763D02*
X606Y763D01*
X617Y763D02*
X658Y763D01*
X266Y762D02*
X357Y762D01*
X566Y762D02*
X657Y762D01*
X267Y761D02*
X356Y761D01*
X567Y761D02*
X656Y761D01*
X268Y760D02*
X356Y760D01*
X568Y760D02*
X656Y760D01*
X269Y759D02*
X354Y759D01*
X569Y759D02*
X654Y759D01*
X270Y758D02*
X353Y758D01*
X570Y758D02*
X653Y758D01*
X271Y757D02*
X352Y757D01*
X571Y757D02*
X652Y757D01*
X273Y756D02*
X350Y756D01*
X573Y756D02*
X650Y756D01*
X275Y755D02*
X349Y755D01*
X575Y755D02*
X649Y755D01*
X277Y754D02*
X347Y754D01*
X577Y754D02*
X646Y754D01*
X280Y753D02*
X343Y753D01*
X580Y753D02*
X643Y753D01*
X283Y704D02*
X340Y704D01*
X583Y704D02*
X640Y704D01*
X278Y703D02*
X345Y703D01*
X578Y703D02*
X645Y703D01*
X276Y702D02*
X348Y702D01*
X576Y702D02*
X647Y702D01*
X274Y701D02*
X349Y701D01*
X574Y701D02*
X649Y701D01*
X272Y700D02*
X351Y700D01*
X572Y700D02*
X651Y700D01*
X271Y699D02*
X353Y699D01*
X571Y699D02*
X653Y699D01*
X269Y698D02*
X354Y698D01*
X569Y698D02*
X654Y698D01*
X268Y697D02*
X355Y697D01*
X568Y697D02*
X655Y697D01*
X267Y696D02*
X356Y696D01*
X567Y696D02*
X656Y696D01*
X266Y695D02*
X357Y695D01*
X566Y695D02*
X657Y695D01*
X266Y694D02*
X309Y694D01*
X314Y694D02*
X358Y694D01*
X566Y694D02*
X609Y694D01*
X614Y694D02*
X658Y694D01*
X265Y693D02*
X305Y693D01*
X318Y693D02*
X358Y693D01*
X565Y693D02*
X605Y693D01*
X618Y693D02*
X658Y693D01*
X264Y692D02*
X303Y692D01*
X320Y692D02*
X359Y692D01*
X564Y692D02*
X603Y692D01*
X620Y692D02*
X659Y692D01*
X264Y691D02*
X302Y691D01*
X322Y691D02*
X360Y691D01*
X564Y691D02*
X602Y691D01*
X622Y691D02*
X660Y691D01*
X263Y690D02*
X300Y690D01*
X323Y690D02*
X360Y690D01*
X563Y690D02*
X600Y690D01*
X623Y690D02*
X660Y690D01*
X262Y689D02*
X299Y689D01*
X324Y689D02*
X361Y689D01*
X562Y689D02*
X599Y689D01*
X624Y689D02*
X661Y689D01*
X262Y688D02*
X299Y688D01*
X325Y688D02*
X361Y688D01*
X562Y688D02*
X598Y688D01*
X625Y688D02*
X661Y688D01*
X262Y687D02*
X298Y687D01*
X325Y687D02*
X362Y687D01*
X562Y687D02*
X598Y687D01*
X625Y687D02*
X661Y687D01*
X261Y686D02*
X297Y686D01*
X326Y686D02*
X362Y686D01*
X561Y686D02*
X597Y686D01*
X626Y686D02*
X662Y686D01*
X261Y685D02*
X297Y685D01*
X327Y685D02*
X362Y685D01*
X561Y685D02*
X597Y685D01*
X626Y685D02*
X662Y685D01*
X261Y684D02*
X296Y684D01*
X327Y684D02*
X362Y684D01*
X561Y684D02*
X596Y684D01*
X627Y684D02*
X662Y684D01*
X261Y683D02*
X296Y683D01*
X327Y683D02*
X363Y683D01*
X561Y683D02*
X596Y683D01*
X627Y683D02*
X663Y683D01*
X260Y682D02*
X296Y682D01*
X328Y682D02*
X363Y682D01*
X560Y682D02*
X596Y682D01*
X628Y682D02*
X663Y682D01*
X260Y681D02*
X295Y681D01*
X328Y681D02*
X363Y681D01*
X560Y681D02*
X595Y681D01*
X628Y681D02*
X663Y681D01*
X260Y680D02*
X295Y680D01*
X328Y680D02*
X363Y680D01*
X560Y680D02*
X595Y680D01*
X628Y680D02*
X663Y680D01*
X260Y679D02*
X295Y679D01*
X328Y679D02*
X363Y679D01*
X560Y679D02*
X595Y679D01*
X628Y679D02*
X663Y679D01*
X260Y678D02*
X295Y678D01*
X328Y678D02*
X363Y678D01*
X560Y678D02*
X595Y678D01*
X628Y678D02*
X663Y678D01*
X260Y677D02*
X295Y677D01*
X328Y677D02*
X363Y677D01*
X560Y677D02*
X595Y677D01*
X628Y677D02*
X663Y677D01*
X260Y676D02*
X295Y676D01*
X328Y676D02*
X363Y676D01*
X560Y676D02*
X595Y676D01*
X628Y676D02*
X663Y676D01*
X260Y675D02*
X295Y675D01*
X328Y675D02*
X363Y675D01*
X560Y675D02*
X595Y675D01*
X628Y675D02*
X663Y675D01*
X260Y674D02*
X296Y674D01*
X327Y674D02*
X363Y674D01*
X560Y674D02*
X596Y674D01*
X627Y674D02*
X663Y674D01*
X261Y673D02*
X296Y673D01*
X327Y673D02*
X363Y673D01*
X561Y673D02*
X596Y673D01*
X627Y673D02*
X663Y673D01*
X261Y672D02*
X296Y672D01*
X327Y672D02*
X362Y672D01*
X561Y672D02*
X596Y672D01*
X627Y672D02*
X662Y672D01*
X261Y671D02*
X297Y671D01*
X326Y671D02*
X362Y671D01*
X561Y671D02*
X597Y671D01*
X626Y671D02*
X662Y671D01*
X261Y670D02*
X297Y670D01*
X326Y670D02*
X362Y670D01*
X561Y670D02*
X597Y670D01*
X626Y670D02*
X662Y670D01*
X262Y669D02*
X298Y669D01*
X325Y669D02*
X361Y669D01*
X562Y669D02*
X598Y669D01*
X625Y669D02*
X661Y669D01*
X262Y668D02*
X299Y668D01*
X324Y668D02*
X361Y668D01*
X562Y668D02*
X599Y668D01*
X624Y668D02*
X661Y668D01*
X263Y667D02*
X300Y667D01*
X323Y667D02*
X360Y667D01*
X563Y667D02*
X600Y667D01*
X623Y667D02*
X660Y667D01*
X263Y666D02*
X301Y666D01*
X322Y666D02*
X360Y666D01*
X563Y666D02*
X601Y666D01*
X622Y666D02*
X660Y666D01*
X264Y665D02*
X302Y665D01*
X321Y665D02*
X359Y665D01*
X564Y665D02*
X602Y665D01*
X621Y665D02*
X659Y665D01*
X264Y664D02*
X304Y664D01*
X319Y664D02*
X359Y664D01*
X564Y664D02*
X604Y664D01*
X619Y664D02*
X659Y664D01*
X265Y663D02*
X306Y663D01*
X317Y663D02*
X358Y663D01*
X565Y663D02*
X606Y663D01*
X617Y663D02*
X658Y663D01*
X266Y662D02*
X357Y662D01*
X566Y662D02*
X657Y662D01*
X267Y661D02*
X356Y661D01*
X567Y661D02*
X656Y661D01*
X268Y660D02*
X356Y660D01*
X568Y660D02*
X656Y660D01*
X269Y659D02*
X354Y659D01*
X569Y659D02*
X654Y659D01*
X270Y658D02*
X353Y658D01*
X570Y658D02*
X653Y658D01*
X271Y657D02*
X352Y657D01*
X571Y657D02*
X652Y657D01*
X273Y656D02*
X350Y656D01*
X573Y656D02*
X650Y656D01*
X275Y655D02*
X349Y655D01*
X575Y655D02*
X649Y655D01*
X277Y654D02*
X346Y654D01*
X577Y654D02*
X646Y654D01*
X280Y653D02*
X343Y653D01*
X580Y653D02*
X643Y653D01*
X283Y604D02*
X340Y604D01*
X583Y604D02*
X640Y604D01*
X278Y603D02*
X345Y603D01*
X578Y603D02*
X645Y603D01*
X276Y602D02*
X348Y602D01*
X576Y602D02*
X647Y602D01*
X274Y601D02*
X349Y601D01*
X574Y601D02*
X649Y601D01*
X272Y600D02*
X351Y600D01*
X572Y600D02*
X651Y600D01*
X271Y599D02*
X353Y599D01*
X571Y599D02*
X653Y599D01*
X269Y598D02*
X354Y598D01*
X569Y598D02*
X654Y598D01*
X268Y597D02*
X355Y597D01*
X568Y597D02*
X655Y597D01*
X267Y596D02*
X356Y596D01*
X567Y596D02*
X656Y596D01*
X266Y595D02*
X357Y595D01*
X566Y595D02*
X657Y595D01*
X266Y594D02*
X309Y594D01*
X314Y594D02*
X358Y594D01*
X566Y594D02*
X609Y594D01*
X614Y594D02*
X658Y594D01*
X265Y593D02*
X305Y593D01*
X318Y593D02*
X358Y593D01*
X565Y593D02*
X605Y593D01*
X618Y593D02*
X658Y593D01*
X264Y592D02*
X303Y592D01*
X320Y592D02*
X359Y592D01*
X564Y592D02*
X603Y592D01*
X620Y592D02*
X659Y592D01*
X264Y591D02*
X302Y591D01*
X322Y591D02*
X360Y591D01*
X564Y591D02*
X602Y591D01*
X622Y591D02*
X660Y591D01*
X263Y590D02*
X300Y590D01*
X323Y590D02*
X360Y590D01*
X563Y590D02*
X600Y590D01*
X623Y590D02*
X660Y590D01*
X262Y589D02*
X299Y589D01*
X324Y589D02*
X361Y589D01*
X562Y589D02*
X599Y589D01*
X624Y589D02*
X661Y589D01*
X262Y588D02*
X298Y588D01*
X325Y588D02*
X361Y588D01*
X562Y588D02*
X598Y588D01*
X625Y588D02*
X661Y588D01*
X262Y587D02*
X298Y587D01*
X325Y587D02*
X362Y587D01*
X562Y587D02*
X598Y587D01*
X625Y587D02*
X661Y587D01*
X261Y586D02*
X297Y586D01*
X326Y586D02*
X362Y586D01*
X561Y586D02*
X597Y586D01*
X626Y586D02*
X662Y586D01*
X261Y585D02*
X297Y585D01*
X327Y585D02*
X362Y585D01*
X561Y585D02*
X597Y585D01*
X626Y585D02*
X662Y585D01*
X261Y584D02*
X296Y584D01*
X327Y584D02*
X362Y584D01*
X561Y584D02*
X596Y584D01*
X627Y584D02*
X662Y584D01*
X261Y583D02*
X296Y583D01*
X327Y583D02*
X363Y583D01*
X561Y583D02*
X596Y583D01*
X627Y583D02*
X663Y583D01*
X260Y582D02*
X296Y582D01*
X328Y582D02*
X363Y582D01*
X560Y582D02*
X596Y582D01*
X628Y582D02*
X663Y582D01*
X260Y581D02*
X295Y581D01*
X328Y581D02*
X363Y581D01*
X560Y581D02*
X595Y581D01*
X628Y581D02*
X663Y581D01*
X260Y580D02*
X295Y580D01*
X328Y580D02*
X363Y580D01*
X560Y580D02*
X595Y580D01*
X628Y580D02*
X663Y580D01*
X260Y579D02*
X295Y579D01*
X328Y579D02*
X363Y579D01*
X560Y579D02*
X595Y579D01*
X628Y579D02*
X663Y579D01*
X260Y578D02*
X295Y578D01*
X328Y578D02*
X363Y578D01*
X560Y578D02*
X595Y578D01*
X628Y578D02*
X663Y578D01*
X260Y577D02*
X295Y577D01*
X328Y577D02*
X363Y577D01*
X560Y577D02*
X595Y577D01*
X628Y577D02*
X663Y577D01*
X260Y576D02*
X295Y576D01*
X328Y576D02*
X363Y576D01*
X560Y576D02*
X595Y576D01*
X628Y576D02*
X663Y576D01*
X260Y575D02*
X295Y575D01*
X328Y575D02*
X363Y575D01*
X560Y575D02*
X595Y575D01*
X628Y575D02*
X663Y575D01*
X260Y574D02*
X296Y574D01*
X327Y574D02*
X363Y574D01*
X560Y574D02*
X596Y574D01*
X627Y574D02*
X663Y574D01*
X261Y573D02*
X296Y573D01*
X327Y573D02*
X363Y573D01*
X561Y573D02*
X596Y573D01*
X627Y573D02*
X663Y573D01*
X261Y572D02*
X296Y572D01*
X327Y572D02*
X362Y572D01*
X561Y572D02*
X596Y572D01*
X627Y572D02*
X662Y572D01*
X261Y571D02*
X297Y571D01*
X326Y571D02*
X362Y571D01*
X561Y571D02*
X597Y571D01*
X626Y571D02*
X662Y571D01*
X261Y570D02*
X297Y570D01*
X326Y570D02*
X362Y570D01*
X561Y570D02*
X597Y570D01*
X626Y570D02*
X662Y570D01*
X262Y569D02*
X298Y569D01*
X325Y569D02*
X361Y569D01*
X562Y569D02*
X598Y569D01*
X625Y569D02*
X661Y569D01*
X262Y568D02*
X299Y568D01*
X324Y568D02*
X361Y568D01*
X562Y568D02*
X599Y568D01*
X624Y568D02*
X661Y568D01*
X263Y567D02*
X300Y567D01*
X323Y567D02*
X360Y567D01*
X563Y567D02*
X600Y567D01*
X623Y567D02*
X660Y567D01*
X263Y566D02*
X301Y566D01*
X322Y566D02*
X360Y566D01*
X563Y566D02*
X601Y566D01*
X622Y566D02*
X660Y566D01*
X264Y565D02*
X302Y565D01*
X321Y565D02*
X359Y565D01*
X564Y565D02*
X602Y565D01*
X621Y565D02*
X659Y565D01*
X264Y564D02*
X304Y564D01*
X319Y564D02*
X359Y564D01*
X564Y564D02*
X604Y564D01*
X619Y564D02*
X659Y564D01*
X265Y563D02*
X306Y563D01*
X317Y563D02*
X358Y563D01*
X565Y563D02*
X606Y563D01*
X617Y563D02*
X658Y563D01*
X266Y562D02*
X357Y562D01*
X566Y562D02*
X657Y562D01*
X267Y561D02*
X356Y561D01*
X567Y561D02*
X656Y561D01*
X268Y560D02*
X356Y560D01*
X568Y560D02*
X656Y560D01*
X269Y559D02*
X354Y559D01*
X569Y559D02*
X654Y559D01*
X270Y558D02*
X353Y558D01*
X570Y558D02*
X653Y558D01*
X271Y557D02*
X352Y557D01*
X571Y557D02*
X652Y557D01*
X273Y556D02*
X350Y556D01*
X573Y556D02*
X650Y556D01*
X275Y555D02*
X349Y555D01*
X575Y555D02*
X649Y555D01*
X277Y554D02*
X346Y554D01*
X577Y554D02*
X646Y554D01*
X280Y553D02*
X343Y553D01*
X580Y553D02*
X643Y553D01*
X283Y504D02*
X340Y504D01*
X583Y504D02*
X640Y504D01*
X278Y503D02*
X345Y503D01*
X578Y503D02*
X645Y503D01*
X276Y502D02*
X348Y502D01*
X576Y502D02*
X648Y502D01*
X274Y501D02*
X349Y501D01*
X574Y501D02*
X649Y501D01*
X272Y500D02*
X351Y500D01*
X572Y500D02*
X651Y500D01*
X271Y499D02*
X353Y499D01*
X571Y499D02*
X653Y499D01*
X269Y498D02*
X354Y498D01*
X569Y498D02*
X654Y498D01*
X268Y497D02*
X355Y497D01*
X568Y497D02*
X655Y497D01*
X267Y496D02*
X356Y496D01*
X567Y496D02*
X656Y496D01*
X266Y495D02*
X357Y495D01*
X566Y495D02*
X657Y495D01*
X266Y494D02*
X309Y494D01*
X314Y494D02*
X358Y494D01*
X566Y494D02*
X609Y494D01*
X614Y494D02*
X658Y494D01*
X265Y493D02*
X305Y493D01*
X318Y493D02*
X358Y493D01*
X565Y493D02*
X605Y493D01*
X618Y493D02*
X658Y493D01*
X264Y492D02*
X303Y492D01*
X320Y492D02*
X359Y492D01*
X564Y492D02*
X603Y492D01*
X620Y492D02*
X659Y492D01*
X264Y491D02*
X302Y491D01*
X322Y491D02*
X360Y491D01*
X564Y491D02*
X602Y491D01*
X622Y491D02*
X660Y491D01*
X263Y490D02*
X300Y490D01*
X323Y490D02*
X360Y490D01*
X563Y490D02*
X600Y490D01*
X623Y490D02*
X660Y490D01*
X262Y489D02*
X299Y489D01*
X324Y489D02*
X361Y489D01*
X562Y489D02*
X599Y489D01*
X624Y489D02*
X661Y489D01*
X262Y488D02*
X298Y488D01*
X325Y488D02*
X361Y488D01*
X562Y488D02*
X598Y488D01*
X625Y488D02*
X661Y488D01*
X262Y487D02*
X298Y487D01*
X325Y487D02*
X362Y487D01*
X562Y487D02*
X598Y487D01*
X625Y487D02*
X661Y487D01*
X261Y486D02*
X297Y486D01*
X326Y486D02*
X362Y486D01*
X561Y486D02*
X597Y486D01*
X626Y486D02*
X662Y486D01*
X261Y485D02*
X297Y485D01*
X327Y485D02*
X362Y485D01*
X561Y485D02*
X597Y485D01*
X626Y485D02*
X662Y485D01*
X261Y484D02*
X296Y484D01*
X327Y484D02*
X362Y484D01*
X561Y484D02*
X596Y484D01*
X627Y484D02*
X662Y484D01*
X261Y483D02*
X296Y483D01*
X327Y483D02*
X363Y483D01*
X561Y483D02*
X596Y483D01*
X627Y483D02*
X663Y483D01*
X260Y482D02*
X296Y482D01*
X328Y482D02*
X363Y482D01*
X560Y482D02*
X596Y482D01*
X628Y482D02*
X663Y482D01*
X260Y481D02*
X295Y481D01*
X328Y481D02*
X363Y481D01*
X560Y481D02*
X595Y481D01*
X628Y481D02*
X663Y481D01*
X260Y480D02*
X295Y480D01*
X328Y480D02*
X363Y480D01*
X560Y480D02*
X595Y480D01*
X628Y480D02*
X663Y480D01*
X260Y479D02*
X295Y479D01*
X328Y479D02*
X363Y479D01*
X560Y479D02*
X595Y479D01*
X628Y479D02*
X663Y479D01*
X260Y478D02*
X295Y478D01*
X328Y478D02*
X363Y478D01*
X560Y478D02*
X595Y478D01*
X628Y478D02*
X663Y478D01*
X260Y477D02*
X295Y477D01*
X328Y477D02*
X363Y477D01*
X560Y477D02*
X595Y477D01*
X628Y477D02*
X663Y477D01*
X260Y476D02*
X295Y476D01*
X328Y476D02*
X363Y476D01*
X560Y476D02*
X595Y476D01*
X628Y476D02*
X663Y476D01*
X260Y475D02*
X295Y475D01*
X328Y475D02*
X363Y475D01*
X560Y475D02*
X595Y475D01*
X628Y475D02*
X663Y475D01*
X260Y474D02*
X296Y474D01*
X327Y474D02*
X363Y474D01*
X560Y474D02*
X596Y474D01*
X627Y474D02*
X663Y474D01*
X261Y473D02*
X296Y473D01*
X327Y473D02*
X363Y473D01*
X561Y473D02*
X596Y473D01*
X627Y473D02*
X663Y473D01*
X261Y472D02*
X296Y472D01*
X327Y472D02*
X362Y472D01*
X561Y472D02*
X596Y472D01*
X627Y472D02*
X662Y472D01*
X261Y471D02*
X297Y471D01*
X326Y471D02*
X362Y471D01*
X561Y471D02*
X597Y471D01*
X626Y471D02*
X662Y471D01*
X261Y470D02*
X297Y470D01*
X326Y470D02*
X362Y470D01*
X561Y470D02*
X597Y470D01*
X626Y470D02*
X662Y470D01*
X262Y469D02*
X298Y469D01*
X325Y469D02*
X361Y469D01*
X562Y469D02*
X598Y469D01*
X625Y469D02*
X661Y469D01*
X262Y468D02*
X299Y468D01*
X324Y468D02*
X361Y468D01*
X562Y468D02*
X599Y468D01*
X624Y468D02*
X661Y468D01*
X263Y467D02*
X300Y467D01*
X323Y467D02*
X360Y467D01*
X563Y467D02*
X600Y467D01*
X623Y467D02*
X660Y467D01*
X263Y466D02*
X301Y466D01*
X322Y466D02*
X360Y466D01*
X563Y466D02*
X601Y466D01*
X622Y466D02*
X660Y466D01*
X264Y465D02*
X302Y465D01*
X321Y465D02*
X359Y465D01*
X564Y465D02*
X602Y465D01*
X621Y465D02*
X659Y465D01*
X264Y464D02*
X304Y464D01*
X319Y464D02*
X359Y464D01*
X564Y464D02*
X604Y464D01*
X619Y464D02*
X659Y464D01*
X265Y463D02*
X306Y463D01*
X317Y463D02*
X358Y463D01*
X565Y463D02*
X606Y463D01*
X617Y463D02*
X658Y463D01*
X266Y462D02*
X357Y462D01*
X566Y462D02*
X657Y462D01*
X267Y461D02*
X356Y461D01*
X567Y461D02*
X656Y461D01*
X268Y460D02*
X356Y460D01*
X568Y460D02*
X656Y460D01*
X269Y459D02*
X354Y459D01*
X569Y459D02*
X654Y459D01*
X270Y458D02*
X353Y458D01*
X570Y458D02*
X653Y458D01*
X271Y457D02*
X352Y457D01*
X571Y457D02*
X652Y457D01*
X273Y456D02*
X350Y456D01*
X573Y456D02*
X650Y456D01*
X275Y455D02*
X349Y455D01*
X575Y455D02*
X648Y455D01*
X277Y454D02*
X346Y454D01*
X577Y454D02*
X646Y454D01*
X280Y453D02*
X343Y453D01*
X580Y453D02*
X643Y453D01*
X283Y404D02*
X340Y404D01*
X583Y404D02*
X640Y404D01*
X278Y403D02*
X345Y403D01*
X578Y403D02*
X645Y403D01*
X276Y402D02*
X348Y402D01*
X576Y402D02*
X648Y402D01*
X274Y401D02*
X349Y401D01*
X574Y401D02*
X649Y401D01*
X272Y400D02*
X351Y400D01*
X572Y400D02*
X651Y400D01*
X271Y399D02*
X353Y399D01*
X571Y399D02*
X653Y399D01*
X269Y398D02*
X354Y398D01*
X569Y398D02*
X654Y398D01*
X268Y397D02*
X355Y397D01*
X568Y397D02*
X655Y397D01*
X267Y396D02*
X356Y396D01*
X567Y396D02*
X656Y396D01*
X266Y395D02*
X357Y395D01*
X566Y395D02*
X657Y395D01*
X266Y394D02*
X309Y394D01*
X314Y394D02*
X358Y394D01*
X566Y394D02*
X609Y394D01*
X614Y394D02*
X658Y394D01*
X265Y393D02*
X305Y393D01*
X318Y393D02*
X358Y393D01*
X565Y393D02*
X605Y393D01*
X618Y393D02*
X658Y393D01*
X264Y392D02*
X303Y392D01*
X320Y392D02*
X359Y392D01*
X564Y392D02*
X603Y392D01*
X620Y392D02*
X659Y392D01*
X264Y391D02*
X302Y391D01*
X322Y391D02*
X360Y391D01*
X564Y391D02*
X601Y391D01*
X622Y391D02*
X660Y391D01*
X263Y390D02*
X300Y390D01*
X323Y390D02*
X360Y390D01*
X563Y390D02*
X600Y390D01*
X623Y390D02*
X660Y390D01*
X262Y389D02*
X299Y389D01*
X324Y389D02*
X361Y389D01*
X562Y389D02*
X599Y389D01*
X624Y389D02*
X661Y389D01*
X262Y388D02*
X298Y388D01*
X325Y388D02*
X361Y388D01*
X562Y388D02*
X598Y388D01*
X625Y388D02*
X661Y388D01*
X262Y387D02*
X298Y387D01*
X325Y387D02*
X362Y387D01*
X562Y387D02*
X598Y387D01*
X625Y387D02*
X661Y387D01*
X261Y386D02*
X297Y386D01*
X326Y386D02*
X362Y386D01*
X561Y386D02*
X597Y386D01*
X626Y386D02*
X662Y386D01*
X261Y385D02*
X297Y385D01*
X327Y385D02*
X362Y385D01*
X561Y385D02*
X597Y385D01*
X627Y385D02*
X662Y385D01*
X261Y384D02*
X296Y384D01*
X327Y384D02*
X362Y384D01*
X561Y384D02*
X596Y384D01*
X627Y384D02*
X662Y384D01*
X261Y383D02*
X296Y383D01*
X327Y383D02*
X363Y383D01*
X560Y383D02*
X596Y383D01*
X627Y383D02*
X663Y383D01*
X260Y382D02*
X296Y382D01*
X328Y382D02*
X363Y382D01*
X560Y382D02*
X596Y382D01*
X628Y382D02*
X663Y382D01*
X260Y381D02*
X295Y381D01*
X328Y381D02*
X363Y381D01*
X560Y381D02*
X595Y381D01*
X628Y381D02*
X663Y381D01*
X260Y380D02*
X295Y380D01*
X328Y380D02*
X363Y380D01*
X560Y380D02*
X595Y380D01*
X628Y380D02*
X663Y380D01*
X260Y379D02*
X295Y379D01*
X328Y379D02*
X363Y379D01*
X560Y379D02*
X595Y379D01*
X628Y379D02*
X663Y379D01*
X260Y378D02*
X295Y378D01*
X328Y378D02*
X363Y378D01*
X560Y378D02*
X595Y378D01*
X628Y378D02*
X663Y378D01*
X260Y377D02*
X295Y377D01*
X328Y377D02*
X363Y377D01*
X560Y377D02*
X595Y377D01*
X628Y377D02*
X663Y377D01*
X260Y376D02*
X295Y376D01*
X328Y376D02*
X363Y376D01*
X560Y376D02*
X595Y376D01*
X628Y376D02*
X663Y376D01*
X260Y375D02*
X295Y375D01*
X328Y375D02*
X363Y375D01*
X560Y375D02*
X595Y375D01*
X628Y375D02*
X663Y375D01*
X260Y374D02*
X296Y374D01*
X327Y374D02*
X363Y374D01*
X560Y374D02*
X596Y374D01*
X627Y374D02*
X663Y374D01*
X261Y373D02*
X296Y373D01*
X327Y373D02*
X363Y373D01*
X561Y373D02*
X596Y373D01*
X627Y373D02*
X663Y373D01*
X261Y372D02*
X296Y372D01*
X327Y372D02*
X362Y372D01*
X561Y372D02*
X596Y372D01*
X627Y372D02*
X662Y372D01*
X261Y371D02*
X297Y371D01*
X326Y371D02*
X362Y371D01*
X561Y371D02*
X597Y371D01*
X626Y371D02*
X662Y371D01*
X261Y370D02*
X297Y370D01*
X326Y370D02*
X362Y370D01*
X561Y370D02*
X597Y370D01*
X626Y370D02*
X662Y370D01*
X262Y369D02*
X298Y369D01*
X325Y369D02*
X361Y369D01*
X562Y369D02*
X598Y369D01*
X625Y369D02*
X661Y369D01*
X262Y368D02*
X299Y368D01*
X324Y368D02*
X361Y368D01*
X562Y368D02*
X599Y368D01*
X624Y368D02*
X661Y368D01*
X263Y367D02*
X300Y367D01*
X323Y367D02*
X360Y367D01*
X563Y367D02*
X600Y367D01*
X623Y367D02*
X660Y367D01*
X263Y366D02*
X301Y366D01*
X322Y366D02*
X360Y366D01*
X563Y366D02*
X601Y366D01*
X622Y366D02*
X660Y366D01*
X264Y365D02*
X302Y365D01*
X321Y365D02*
X359Y365D01*
X564Y365D02*
X602Y365D01*
X621Y365D02*
X659Y365D01*
X264Y364D02*
X304Y364D01*
X319Y364D02*
X359Y364D01*
X564Y364D02*
X604Y364D01*
X619Y364D02*
X659Y364D01*
X265Y363D02*
X306Y363D01*
X317Y363D02*
X358Y363D01*
X565Y363D02*
X606Y363D01*
X617Y363D02*
X658Y363D01*
X266Y362D02*
X357Y362D01*
X566Y362D02*
X657Y362D01*
X267Y361D02*
X356Y361D01*
X567Y361D02*
X656Y361D01*
X268Y360D02*
X356Y360D01*
X568Y360D02*
X656Y360D01*
X269Y359D02*
X354Y359D01*
X569Y359D02*
X654Y359D01*
X270Y358D02*
X353Y358D01*
X570Y358D02*
X653Y358D01*
X271Y357D02*
X352Y357D01*
X571Y357D02*
X652Y357D01*
X273Y356D02*
X350Y356D01*
X573Y356D02*
X650Y356D01*
X275Y355D02*
X349Y355D01*
X575Y355D02*
X648Y355D01*
X277Y354D02*
X346Y354D01*
X577Y354D02*
X646Y354D01*
X280Y353D02*
X343Y353D01*
X580Y353D02*
X643Y353D01*
D02*
G04 End of Copper0*
M02*