; NON-PLATED HOLES START AT T1
; THROUGH (PLATED) HOLES START AT T100
M48
INCH
T100C0.031497
T101C0.030000
T102C0.035000
T103C0.032000
%
T100
X028111Y006762
X028111Y003762
X028111Y009762
X028111Y002777
X028111Y012762
X028111Y008777
X028111Y005777
X028111Y011777
T101
X010111Y002777
X009109Y002777
T102
X015111Y007777
X024111Y008777
X018111Y017777
X015111Y008777
X020111Y002777
X018111Y015218
X024111Y002777
X024111Y011777
X020111Y008777
X009111Y010777
X020111Y011777
X012111Y005777
X012111Y006777
X010111Y017777
X020111Y005777
X011111Y014777
X015111Y005777
X009111Y014777
X012111Y007777
X012111Y008777
X009111Y017777
X024111Y005777
X016339Y015218
X016339Y017777
X015111Y006777
X011111Y010777
T103
X006111Y008777
X006111Y006777
X003111Y008777
X006111Y009777
X003111Y007777
X003111Y003777
X006111Y005777
X006111Y003777
X003111Y006777
X006111Y007777
X006111Y004777
X003111Y005777
X003111Y004777
X003111Y009777
T00
M30
